# xmcd
#
# Track frame offsets:
#	150
#	18380
#	39083
#	55058
#	84265
#	110570
#	133630
#	150968
#	174735
#	197848
#
# Disc length: 2951 seconds
#
# Revision: 1
# Processed by: cddbd v1.5.2PL0 Copyright (c) Steve Scherf et al.
# Submitted via: EZCDAudioConverter 8.0.2.1
#
DISCID=720b850a
DTITLE=Ngọc Sơn - Thương Một Người
DYEAR=1993
DGENRE=blues
TTITLE0=Ngọc Sơn - Xin em đừng hỏi
TTITLE1=Ngọc Sơn - Trúc đào
TTITLE2=Ngọc Sơn - Tình xuân
TTITLE3=Ngọc Sơn - Mùa đông của anh
TTITLE4=Ngọc Sơn - Về dưới mái nhà
TTITLE5=Ngọc Sơn - Hoa xứ nhà nàng
TTITLE6=Ngọc Sơn - Chiều cuối tuần
TTITLE7=Ngọc Sơn - Tình đẹp mùa chôm chôm
TTITLE8=Ngọc Sơn - Thương Một Người
TTITLE9=Ngọc Sơn, Phương Thảo - Xuân hồng trên má
EXTD=
EXTT0=
EXTT1=
EXTT2=
EXTT3=
EXTT4=
EXTT5=
EXTT6=
EXTT7=
EXTT8=
EXTT9=
PLAYORDER=
